<svg xmlns="http://www.w3.org/2000/svg" viewBox="0 0 259.64 64.46"><defs><style>.cls-1{fill:#fff;}.cls-2{fill:#00b060;}</style></defs><g id="Layer_2" data-name="Layer 2"><g id="Layer_1-2" data-name="Layer 1"><path class="cls-1" d="M103.76,17.77l-11,14.13,10.6,14.91H95.79L86.43,33.17V46.81H80.54v-29h5.89v13l9.72-13Zm42.92,0h-5.93V46.69H158.1V41.43H146.68Zm19.43,28.92h18.2V41.2H172V34.68h11V29.5H172V23.34h12.36V17.77h-18.2Zm44.46-11.42,5.11,11.42h-6.56l-4.43-10.44h-5.34V46.69H193.5V17.77h11.15c7.22,0,10.83,3.33,10.83,9.26C215.48,31,213.71,33.9,210.57,35.27ZM209.28,27c0-2.24-1.26-4-4.63-4h-5.3v8.16h5.3C208,31.15,209.28,29.31,209.28,27Zm14.88,19.66H230V17.77h-5.85Zm28-16.64-4.55-1.14c-1.92-.47-3-1.45-3-3.06,0-1.88,1.45-3.22,4.12-3.22,2.31,0,4.16,1.06,4.63,3.34l5.53-1.45c-.82-4.36-4.51-7.26-10-7.26-6.13,0-10.09,3.57-10.09,8.83,0,3.8,2.08,7.14,7.5,8.44l4.63,1.09c2,.52,2.9,1.57,2.9,3.07,0,1.88-1.57,3.1-4.51,3.1s-5.22-1.22-5.58-3.65l-5.53,1.41c.75,4.63,5,7.65,10.91,7.65,6.48,0,10.56-3.57,10.56-8.83C259.64,34.56,257.56,31.43,252.14,30.05ZM123.05,17.77l10.32,28.92h-6.2l-1.75-5.12H114.74L113,46.69h-6.08l10.36-28.92h5.81Zm.7,18.89L120.12,26l-3.66,10.69Z"/><path class="cls-2" d="M17.53,0,21.6,2.57V27.12H4.07L0,24.55v-22L4.07,0ZM60,0H40.26L27.51,18.7,44.65,29.52,64,2.55ZM17.53,64.46l4.07-2.57V37.34H4.07L0,39.91v22l4.07,2.57ZM64,61.91l-19.37-27L27.51,45.76l12.75,18.7H60Z"/></g></g></svg>